<?xml version="1.0" encoding="utf-8"?>
<!-- Generator: Adobe Illustrator 21.1.0, SVG Export Plug-In . SVG Version: 6.00 Build 0)  -->
<svg version="1.1" id="Layer_1" xmlns="http://www.w3.org/2000/svg" xmlns:xlink="http://www.w3.org/1999/xlink" x="0px" y="0px"
	 viewBox="0 0 2902.7 2902.7" style="enable-background:new 0 0 2902.7 2902.7;" xml:space="preserve">
<style type="text/css">
	.st0{fill:#E4EC0B;}
	.st1{fill:#9D928D;}
	.st2{fill:#918982;}
	.st3{fill:#F6F6F4;}
	.st4{fill:#221C1D;}
</style>
<g>
	<path class="st0" d="M2397.1,1792.4c-39.1-86.8-112.5-131.2-200.6-134.3c111.8,157.9,107.8,444.7-21.5,694.3
		c-40.1,77.4-88.3,142.9-140.5,195.5c47.8-22.8,96.2-55,143.2-97.3C2380.3,2268.1,2478.6,1973.4,2397.1,1792.4z"/>
	<g>
		<path class="st1" d="M2152.5,1787.7c-54.9-161.3-185.4-254.4-346.9-271.6c51.5,44.9,95.1,102.1,126.7,172.9
			c145.4,325.2-5.4,796-336.8,1051.7c-31.6,24.4-63.8,45-96.2,63.8c75.3-19.6,152.8-52.5,229.5-100.8
			C2063.4,2492.9,2253,2082.8,2152.5,1787.7z"/>
	</g>
	<g>
		<path class="st2" d="M1214.9,1512.5c-743.2-52.1-1001.4,463.4-1001.4,463.4c23.2-280.8,224.6-543.1,224.6-543.1
			c-710.5,508.9-189,1242.4-189,1242.4c664.6,46.6,1058-277.4,1083.3-583.3C1357.6,1786.1,1214.9,1512.5,1214.9,1512.5z"/>
	</g>
	<path class="st3" d="M820.5,1414c0,0,786.3-334.3,1738.5,323.5c358.8,247.9,369.4-117.7,144.4-511.2
		c-11.7-20.4-371.7-671.4-873.9-514.7C1327.2,868.1,847.5,1376.7,820.5,1414z"/>
	<path class="st3" d="M2181.4,622c0,0,177.6,38.4-7.3-216.1c-79-108.8-430.3-416.2-728.3-325.2c-297.9,91-734,870.9-661.4,1317.1
		C784.4,1397.7,1486,553.3,2181.4,622z"/>
	<path class="st0" d="M1774.9,1656.5c-87.7-153.8-243.3-217.1-414.3-191.4c60.7,32.3,112.9,81.9,151.5,149.6
		c149.7,262.5,42.1,692.2-240.3,959.9c-132.2,125.3-279.2,192.1-413.6,201.6c178.5,118.5,446.5,70.8,672.3-143.1
		C1817.7,2360.7,1927.2,1923.5,1774.9,1656.5z"/>
	<g>
		<path class="st4" d="M846.1,1849.6c-39.4-94.8-157.1-129.9-262.9-78.3s-159.7,170.2-120.4,265c39.4,94.8,157.1,129.9,262.9,78.3
			S885.4,1944.4,846.1,1849.6z"/>
	</g>
</g>
</svg>
